<mxfile host="app.diagrams.net" modified="2024-04-25T12:25:36.306Z" agent="Mozilla/5.0 (Windows NT 10.0; Win64; x64) AppleWebKit/537.36 (KHTML, like Gecko) Chrome/123.0.0.0 Safari/537.36" etag="X8f7P20ehhLO4lJvsIob" version="24.2.3" type="github">
  <diagram name="第 1 页" id="0ljpZZRD9Gl2g7qRysFF">
    <mxGraphModel dx="1041" dy="540" grid="0" gridSize="10" guides="1" tooltips="1" connect="1" arrows="1" fold="1" page="1" pageScale="1" pageWidth="827" pageHeight="1169" math="0" shadow="0">
      <root>
        <mxCell id="0" />
        <mxCell id="1" parent="0" />
        <mxCell id="MiezRQv3SZ3bYIA5USY3-6" value="SLC1" style="rounded=0;whiteSpace=wrap;html=1;fillColor=#ffff88;strokeColor=#36393d;" parent="1" vertex="1">
          <mxGeometry x="105.5" y="31" width="61" height="29" as="geometry" />
        </mxCell>
        <mxCell id="MiezRQv3SZ3bYIA5USY3-7" value="SLC2R1" style="rounded=0;whiteSpace=wrap;html=1;fillColor=#ffff88;strokeColor=#36393d;" parent="1" vertex="1">
          <mxGeometry x="185.5" y="31" width="60" height="29" as="geometry" />
        </mxCell>
        <mxCell id="MiezRQv3SZ3bYIA5USY3-8" value="" style="endArrow=classic;html=1;rounded=0;entryX=0.5;entryY=0;entryDx=0;entryDy=0;" parent="1" edge="1">
          <mxGeometry width="50" height="50" relative="1" as="geometry">
            <mxPoint x="126" y="60" as="sourcePoint" />
            <mxPoint x="175.5" y="94" as="targetPoint" />
            <Array as="points">
              <mxPoint x="126" y="70" />
              <mxPoint x="175" y="70" />
            </Array>
          </mxGeometry>
        </mxCell>
        <mxCell id="MiezRQv3SZ3bYIA5USY3-9" value="" style="endArrow=none;html=1;rounded=0;exitX=0.5;exitY=1;exitDx=0;exitDy=0;endFill=0;" parent="1" source="MiezRQv3SZ3bYIA5USY3-7" edge="1">
          <mxGeometry width="50" height="50" relative="1" as="geometry">
            <mxPoint x="246" y="31" as="sourcePoint" />
            <mxPoint x="175" y="70" as="targetPoint" />
            <Array as="points">
              <mxPoint x="215.5" y="70" />
              <mxPoint x="175" y="70" />
            </Array>
          </mxGeometry>
        </mxCell>
        <mxCell id="MiezRQv3SZ3bYIA5USY3-10" value="&lt;p style=&quot;language:en-CH;margin-top:0pt;margin-bottom:0pt;margin-left:0in;&lt;br/&gt;text-align:left;direction:ltr;unicode-bidi:embed;mso-line-break-override:none;&lt;br/&gt;word-break:normal;punctuation-wrap:hanging&quot;&gt;&lt;font style=&quot;font-size: 10px;&quot; color=&quot;#c00000&quot;&gt;Repeat creat_offset, offset_pwr&lt;/font&gt;&lt;/p&gt;" style="text;whiteSpace=wrap;html=1;align=center;" parent="1" vertex="1">
          <mxGeometry x="65" y="88" width="221" height="30" as="geometry" />
        </mxCell>
        <mxCell id="MiezRQv3SZ3bYIA5USY3-11" value="&lt;font style=&quot;font-size: 12px;&quot;&gt;interp_ad&lt;/font&gt;" style="rounded=1;whiteSpace=wrap;html=1;fontSize=14;" parent="1" vertex="1">
          <mxGeometry x="137.5" y="182" width="76" height="26" as="geometry" />
        </mxCell>
        <mxCell id="MiezRQv3SZ3bYIA5USY3-12" value="" style="endArrow=classic;html=1;rounded=0;exitX=0.5;exitY=1;exitDx=0;exitDy=0;entryX=0.5;entryY=0;entryDx=0;entryDy=0;" parent="1" source="MiezRQv3SZ3bYIA5USY3-11" edge="1">
          <mxGeometry width="50" height="50" relative="1" as="geometry">
            <mxPoint x="261" y="107" as="sourcePoint" />
            <mxPoint x="175.5" y="225" as="targetPoint" />
          </mxGeometry>
        </mxCell>
        <mxCell id="MiezRQv3SZ3bYIA5USY3-13" value="offset estimates" style="rounded=0;whiteSpace=wrap;html=1;fillColor=#ffff88;strokeColor=#36393d;" parent="1" vertex="1">
          <mxGeometry x="123.75" y="137" width="103.5" height="29" as="geometry" />
        </mxCell>
        <mxCell id="MiezRQv3SZ3bYIA5USY3-14" value="" style="endArrow=classic;html=1;rounded=0;exitX=0.494;exitY=1.016;exitDx=0;exitDy=0;exitPerimeter=0;entryX=0.492;entryY=0;entryDx=0;entryDy=0;entryPerimeter=0;" parent="1" source="MiezRQv3SZ3bYIA5USY3-13" target="MiezRQv3SZ3bYIA5USY3-11" edge="1">
          <mxGeometry width="50" height="50" relative="1" as="geometry">
            <mxPoint x="186" y="209" as="sourcePoint" />
            <mxPoint x="236" y="159" as="targetPoint" />
          </mxGeometry>
        </mxCell>
        <mxCell id="MiezRQv3SZ3bYIA5USY3-15" value="&lt;font style=&quot;font-size: 12px;&quot;&gt;SLC_interp_map&lt;/font&gt;" style="rounded=1;whiteSpace=wrap;html=1;fontSize=14;" parent="1" vertex="1">
          <mxGeometry x="125.25" y="226.5" width="100.5" height="26" as="geometry" />
        </mxCell>
        <mxCell id="MiezRQv3SZ3bYIA5USY3-16" value="SLC2R2" style="rounded=0;whiteSpace=wrap;html=1;fillColor=#ffff88;strokeColor=#36393d;" parent="1" vertex="1">
          <mxGeometry x="245.5" y="225" width="60" height="29" as="geometry" />
        </mxCell>
        <mxCell id="MiezRQv3SZ3bYIA5USY3-17" value="" style="endArrow=classic;html=1;rounded=0;exitX=1;exitY=0.5;exitDx=0;exitDy=0;entryX=0;entryY=0.5;entryDx=0;entryDy=0;" parent="1" source="MiezRQv3SZ3bYIA5USY3-15" target="MiezRQv3SZ3bYIA5USY3-16" edge="1">
          <mxGeometry width="50" height="50" relative="1" as="geometry">
            <mxPoint x="186" y="218" as="sourcePoint" />
            <mxPoint x="244" y="238" as="targetPoint" />
          </mxGeometry>
        </mxCell>
        <mxCell id="MiezRQv3SZ3bYIA5USY3-18" value="" style="endArrow=none;html=1;rounded=0;exitX=0;exitY=0.5;exitDx=0;exitDy=0;endFill=0;" parent="1" source="MiezRQv3SZ3bYIA5USY3-6" edge="1">
          <mxGeometry width="50" height="50" relative="1" as="geometry">
            <mxPoint x="105.5" y="91.49999999999977" as="sourcePoint" />
            <mxPoint x="180" y="275" as="targetPoint" />
            <Array as="points">
              <mxPoint x="80" y="45" />
              <mxPoint x="80" y="65" />
              <mxPoint x="80" y="95" />
              <mxPoint x="80" y="145" />
              <mxPoint x="80" y="195" />
              <mxPoint x="80" y="275" />
            </Array>
          </mxGeometry>
        </mxCell>
        <mxCell id="MiezRQv3SZ3bYIA5USY3-19" value="" style="endArrow=classic;html=1;rounded=0;" parent="1" source="MiezRQv3SZ3bYIA5USY3-16" edge="1">
          <mxGeometry width="50" height="50" relative="1" as="geometry">
            <mxPoint x="230" y="355" as="sourcePoint" />
            <mxPoint x="180" y="295" as="targetPoint" />
            <Array as="points">
              <mxPoint x="276" y="275" />
              <mxPoint x="180" y="275" />
            </Array>
          </mxGeometry>
        </mxCell>
        <mxCell id="MiezRQv3SZ3bYIA5USY3-20" value="" style="endArrow=classic;html=1;rounded=0;entryX=0.5;entryY=0;entryDx=0;entryDy=0;exitX=0.5;exitY=1;exitDx=0;exitDy=0;" parent="1" edge="1" source="MiezRQv3SZ3bYIA5USY3-10">
          <mxGeometry width="50" height="50" relative="1" as="geometry">
            <mxPoint x="176" y="125" as="sourcePoint" />
            <mxPoint x="175.75" y="137" as="targetPoint" />
          </mxGeometry>
        </mxCell>
        <mxCell id="MiezRQv3SZ3bYIA5USY3-21" value="&lt;p style=&quot;language:en-CH;margin-top:0pt;margin-bottom:0pt;margin-left:0in;&lt;br/&gt;text-align:left;direction:ltr;unicode-bidi:embed;mso-line-break-override:none;&lt;br/&gt;word-break:normal;punctuation-wrap:hanging&quot;&gt;&lt;font style=&quot;font-size: 10px;&quot; color=&quot;#c00000&quot;&gt;Repeat creat_offset, offset_pwr, offset_fit, SLC_interp&lt;/font&gt;&lt;/p&gt;" style="text;whiteSpace=wrap;html=1;align=center;" parent="1" vertex="1">
          <mxGeometry x="74" y="294" width="240" height="30" as="geometry" />
        </mxCell>
        <mxCell id="MiezRQv3SZ3bYIA5USY3-22" value="&lt;font color=&quot;#ff0000&quot;&gt;SLC2R&lt;/font&gt;" style="rounded=0;whiteSpace=wrap;html=1;fillColor=#ffff88;strokeColor=#36393d;" parent="1" vertex="1">
          <mxGeometry x="150" y="345" width="60" height="29" as="geometry" />
        </mxCell>
        <mxCell id="MiezRQv3SZ3bYIA5USY3-23" value="" style="endArrow=classic;html=1;rounded=0;exitX=0.442;exitY=0.967;exitDx=0;exitDy=0;exitPerimeter=0;" parent="1" target="MiezRQv3SZ3bYIA5USY3-22" edge="1" source="MiezRQv3SZ3bYIA5USY3-21">
          <mxGeometry width="50" height="50" relative="1" as="geometry">
            <mxPoint x="180" y="329" as="sourcePoint" />
            <mxPoint x="140" y="115" as="targetPoint" />
          </mxGeometry>
        </mxCell>
        <mxCell id="km7S7w_QiOWOU8zSNHcL-1" value="s&lt;font face=&quot;Comic Sans MS&quot;&gt;sssasda&lt;/font&gt;" style="rounded=0;whiteSpace=wrap;html=1;" vertex="1" parent="1">
          <mxGeometry x="499" y="124" width="120" height="60" as="geometry" />
        </mxCell>
      </root>
    </mxGraphModel>
  </diagram>
</mxfile>
